<?xml version="1.0" encoding="UTF-8" standalone="no"?>
<!DOCTYPE svg PUBLIC "-//W3C//DTD SVG 1.1//EN"
 "http://www.w3.org/Graphics/SVG/1.1/DTD/svg11.dtd">
<!-- Generated by graphviz version 2.38.0 (20140413.2041)
 -->
<!-- Title: controllers_diagram Pages: 1 -->
<svg width="383pt" height="370pt"
 viewBox="0.00 0.00 383.00 369.50" xmlns="http://www.w3.org/2000/svg" xmlns:xlink="http://www.w3.org/1999/xlink">
<g id="graph0" class="graph" transform="scale(1 1) rotate(0) translate(115.5 197.5)">
<title>controllers_diagram</title>
<polygon fill="none" stroke="none" points="-115.5,172 -115.5,-197.5 267.5,-197.5 267.5,172 -115.5,172"/>
<!-- _diagram_info -->
<g id="node1" class="node"><title>_diagram_info</title>
<text text-anchor="start" x="-103.5" y="-21.6" font-family="Times New Roman,serif" font-size="13.00">Controllers diagram</text>
<text text-anchor="start" x="-103.5" y="-7.6" font-family="Times New Roman,serif" font-size="13.00">Date: Apr 12 2016 &#45; 17:12</text>
<text text-anchor="start" x="-103.5" y="6.4" font-family="Times New Roman,serif" font-size="13.00">Migration version: 20160223172532</text>
<text text-anchor="start" x="-103.5" y="20.4" font-family="Times New Roman,serif" font-size="13.00">Generated by RailRoady 1.4.2</text>
<text text-anchor="start" x="-103.5" y="34.4" font-family="Times New Roman,serif" font-size="13.00">http://railroady.prestonlee.com</text>
</g>
<!-- ApplicationController -->
<g id="node2" class="node"><title>ApplicationController</title>
<path fill="none" stroke="black" d="M138.5,125C138.5,125 251.5,125 251.5,125 257.5,125 263.5,119 263.5,113 263.5,113 263.5,43 263.5,43 263.5,37 257.5,31 251.5,31 251.5,31 138.5,31 138.5,31 132.5,31 126.5,37 126.5,43 126.5,43 126.5,113 126.5,113 126.5,119 132.5,125 138.5,125"/>
<text text-anchor="middle" x="195" y="46.2" font-family="Times New Roman,serif" font-size="14.00">ApplicationController</text>
<polyline fill="none" stroke="black" points="126.5,54 263.5,54 "/>
<polyline fill="none" stroke="black" points="126.5,78 263.5,78 "/>
<polyline fill="none" stroke="black" points="126.5,102 263.5,102 "/>
<text text-anchor="start" x="134.5" y="117.2" font-family="Times New Roman,serif" font-size="14.00">_layout</text>
</g>
<!-- DashController -->
<g id="node3" class="node"><title>DashController</title>
<path fill="none" stroke="black" d="M12.5,167.5C12.5,167.5 89.5,167.5 89.5,167.5 95.5,167.5 101.5,161.5 101.5,155.5 101.5,155.5 101.5,86.5 101.5,86.5 101.5,80.5 95.5,74.5 89.5,74.5 89.5,74.5 12.5,74.5 12.5,74.5 6.5,74.5 0.5,80.5 0.5,86.5 0.5,86.5 0.5,155.5 0.5,155.5 0.5,161.5 6.5,167.5 12.5,167.5"/>
<text text-anchor="middle" x="51" y="89.7" font-family="Times New Roman,serif" font-size="14.00">DashController</text>
<polyline fill="none" stroke="black" points="0.5,97.5 101.5,97.5 "/>
<text text-anchor="start" x="8.5" y="112.7" font-family="Times New Roman,serif" font-size="14.00">index</text>
<polyline fill="none" stroke="black" points="0.5,120.5 101.5,120.5 "/>
<polyline fill="none" stroke="black" points="0.5,144.5 101.5,144.5 "/>
<text text-anchor="start" x="8.5" y="159.7" font-family="Times New Roman,serif" font-size="14.00">_layout</text>
</g>
<!-- ProgramController -->
<g id="node4" class="node"><title>ProgramController</title>
<path fill="none" stroke="black" d="M-71.5,-85C-71.5,-85 25.5,-85 25.5,-85 31.5,-85 37.5,-91 37.5,-97 37.5,-97 37.5,-181 37.5,-181 37.5,-187 31.5,-193 25.5,-193 25.5,-193 -71.5,-193 -71.5,-193 -77.5,-193 -83.5,-187 -83.5,-181 -83.5,-181 -83.5,-97 -83.5,-97 -83.5,-91 -77.5,-85 -71.5,-85"/>
<text text-anchor="middle" x="-23" y="-177.8" font-family="Times New Roman,serif" font-size="14.00">ProgramController</text>
<polyline fill="none" stroke="black" points="-83.5,-170 37.5,-170 "/>
<text text-anchor="start" x="-75.5" y="-154.8" font-family="Times New Roman,serif" font-size="14.00">index</text>
<text text-anchor="start" x="-75.5" y="-139.8" font-family="Times New Roman,serif" font-size="14.00">show</text>
<polyline fill="none" stroke="black" points="-83.5,-132 37.5,-132 "/>
<polyline fill="none" stroke="black" points="-83.5,-108 37.5,-108 "/>
<text text-anchor="start" x="-75.5" y="-92.8" font-family="Times New Roman,serif" font-size="14.00">_layout</text>
</g>
<!-- ResourceController -->
<g id="node5" class="node"><title>ResourceController</title>
<path fill="none" stroke="black" d="M82,-71C82,-71 184,-71 184,-71 190,-71 196,-77 196,-83 196,-83 196,-167 196,-167 196,-173 190,-179 184,-179 184,-179 82,-179 82,-179 76,-179 70,-173 70,-167 70,-167 70,-83 70,-83 70,-77 76,-71 82,-71"/>
<text text-anchor="middle" x="133" y="-163.8" font-family="Times New Roman,serif" font-size="14.00">ResourceController</text>
<polyline fill="none" stroke="black" points="70,-156 196,-156 "/>
<text text-anchor="start" x="78" y="-140.8" font-family="Times New Roman,serif" font-size="14.00">electricity</text>
<text text-anchor="start" x="78" y="-125.8" font-family="Times New Roman,serif" font-size="14.00">water</text>
<polyline fill="none" stroke="black" points="70,-118 196,-118 "/>
<polyline fill="none" stroke="black" points="70,-94 196,-94 "/>
<text text-anchor="start" x="78" y="-78.8" font-family="Times New Roman,serif" font-size="14.00">_layout</text>
</g>
</g>
</svg>
