<?xml version="1.0" encoding="UTF-8" standalone="no"?>
<!DOCTYPE svg PUBLIC "-//W3C//DTD SVG 1.1//EN"
 "http://www.w3.org/Graphics/SVG/1.1/DTD/svg11.dtd">
<!-- Generated by graphviz version 2.38.0 (20140413.2041)
 -->
<!-- Title: models_diagram Pages: 1 -->
<svg width="384pt" height="455pt"
 viewBox="0.00 0.00 384.00 455.00" xmlns="http://www.w3.org/2000/svg" xmlns:xlink="http://www.w3.org/1999/xlink">
<g id="graph0" class="graph" transform="scale(1 1) rotate(0) translate(4 451)">
<title>models_diagram</title>
<polygon fill="none" stroke="none" points="-4,4 -4,-451 380,-451 380,4 -4,4"/>
<!-- _diagram_info -->
<g id="node1" class="node"><title>_diagram_info</title>
<text text-anchor="start" x="8" y="-432.6" font-family="Times New Roman,serif" font-size="13.00">Models diagram</text>
<text text-anchor="start" x="8" y="-418.6" font-family="Times New Roman,serif" font-size="13.00">Date: Apr 12 2016 &#45; 17:11</text>
<text text-anchor="start" x="8" y="-404.6" font-family="Times New Roman,serif" font-size="13.00">Migration version: 20160223172532</text>
<text text-anchor="start" x="8" y="-390.6" font-family="Times New Roman,serif" font-size="13.00">Generated by RailRoady 1.4.2</text>
<text text-anchor="start" x="8" y="-376.6" font-family="Times New Roman,serif" font-size="13.00">http://railroady.prestonlee.com</text>
</g>
<!-- Measurement -->
<g id="node2" class="node"><title>Measurement</title>
<path fill="none" stroke="black" d="M197,-0.5C197,-0.5 288,-0.5 288,-0.5 294,-0.5 300,-6.5 300,-12.5 300,-12.5 300,-79.5 300,-79.5 300,-85.5 294,-91.5 288,-91.5 288,-91.5 197,-91.5 197,-91.5 191,-91.5 185,-85.5 185,-79.5 185,-79.5 185,-12.5 185,-12.5 185,-6.5 191,-0.5 197,-0.5"/>
<text text-anchor="middle" x="242.5" y="-76.3" font-family="Times New Roman,serif" font-size="14.00">Measurement</text>
<polyline fill="none" stroke="black" points="185,-68.5 300,-68.5 "/>
<text text-anchor="start" x="193" y="-53.3" font-family="Times New Roman,serif" font-size="14.00">id :INTEGER</text>
<text text-anchor="start" x="193" y="-38.3" font-family="Times New Roman,serif" font-size="14.00">sensor_id :integer</text>
<text text-anchor="start" x="193" y="-23.3" font-family="Times New Roman,serif" font-size="14.00">time :datetime</text>
<text text-anchor="start" x="193" y="-8.3" font-family="Times New Roman,serif" font-size="14.00">amount :integer</text>
</g>
<!-- Program -->
<g id="node3" class="node"><title>Program</title>
<path fill="none" stroke="black" d="M132.5,-256.5C132.5,-256.5 202.5,-256.5 202.5,-256.5 208.5,-256.5 214.5,-262.5 214.5,-268.5 214.5,-268.5 214.5,-305.5 214.5,-305.5 214.5,-311.5 208.5,-317.5 202.5,-317.5 202.5,-317.5 132.5,-317.5 132.5,-317.5 126.5,-317.5 120.5,-311.5 120.5,-305.5 120.5,-305.5 120.5,-268.5 120.5,-268.5 120.5,-262.5 126.5,-256.5 132.5,-256.5"/>
<text text-anchor="middle" x="167.5" y="-302.3" font-family="Times New Roman,serif" font-size="14.00">Program</text>
<polyline fill="none" stroke="black" points="120.5,-294.5 214.5,-294.5 "/>
<text text-anchor="start" x="128.5" y="-279.3" font-family="Times New Roman,serif" font-size="14.00">id :INTEGER</text>
<text text-anchor="start" x="128.5" y="-264.3" font-family="Times New Roman,serif" font-size="14.00">name :varchar</text>
</g>
<!-- Sensor -->
<g id="node4" class="node"><title>Sensor</title>
<path fill="none" stroke="black" d="M192,-128.5C192,-128.5 293,-128.5 293,-128.5 299,-128.5 305,-134.5 305,-140.5 305,-140.5 305,-192.5 305,-192.5 305,-198.5 299,-204.5 293,-204.5 293,-204.5 192,-204.5 192,-204.5 186,-204.5 180,-198.5 180,-192.5 180,-192.5 180,-140.5 180,-140.5 180,-134.5 186,-128.5 192,-128.5"/>
<text text-anchor="middle" x="242.5" y="-189.3" font-family="Times New Roman,serif" font-size="14.00">Sensor</text>
<polyline fill="none" stroke="black" points="180,-181.5 305,-181.5 "/>
<text text-anchor="start" x="188" y="-166.3" font-family="Times New Roman,serif" font-size="14.00">id :INTEGER</text>
<text text-anchor="start" x="188" y="-151.3" font-family="Times New Roman,serif" font-size="14.00">subtype_id :integer</text>
<text text-anchor="start" x="188" y="-136.3" font-family="Times New Roman,serif" font-size="14.00">program_id :integer</text>
</g>
<!-- Program&#45;&gt;Sensor -->
<g id="edge1" class="edge"><title>Program&#45;&gt;Sensor</title>
<path fill="none" stroke="#de5a7d" d="M190.534,-249.607C197.776,-238.165 205.868,-225.379 213.47,-213.367"/>
<ellipse fill="none" stroke="#de5a7d" cx="188.371" cy="-253.023" rx="4.00002" ry="4.00002"/>
<polygon fill="#de5a7d" stroke="#de5a7d" points="213.552,-213.238 222.702,-207.195 216.226,-209.013 218.9,-204.788 218.9,-204.788 218.9,-204.788 216.226,-209.013 215.097,-202.382 213.552,-213.238 213.552,-213.238"/>
</g>
<!-- Sensor&#45;&gt;Measurement -->
<g id="edge2" class="edge"><title>Sensor&#45;&gt;Measurement</title>
<path fill="none" stroke="#03c166" d="M242.5,-120.216C242.5,-114.188 242.5,-107.956 242.5,-101.788"/>
<ellipse fill="none" stroke="#03c166" cx="242.5" cy="-124.331" rx="4" ry="4"/>
<polygon fill="#03c166" stroke="#03c166" points="242.5,-101.518 247,-91.5175 242.5,-96.5175 242.5,-91.5175 242.5,-91.5175 242.5,-91.5175 242.5,-96.5175 238,-91.5176 242.5,-101.518 242.5,-101.518"/>
</g>
<!-- Subtype -->
<g id="node5" class="node"><title>Subtype</title>
<path fill="none" stroke="black" d="M283,-241.5C283,-241.5 364,-241.5 364,-241.5 370,-241.5 376,-247.5 376,-253.5 376,-253.5 376,-320.5 376,-320.5 376,-326.5 370,-332.5 364,-332.5 364,-332.5 283,-332.5 283,-332.5 277,-332.5 271,-326.5 271,-320.5 271,-320.5 271,-253.5 271,-253.5 271,-247.5 277,-241.5 283,-241.5"/>
<text text-anchor="middle" x="323.5" y="-317.3" font-family="Times New Roman,serif" font-size="14.00">Subtype</text>
<polyline fill="none" stroke="black" points="271,-309.5 376,-309.5 "/>
<text text-anchor="start" x="279" y="-294.3" font-family="Times New Roman,serif" font-size="14.00">id :INTEGER</text>
<text text-anchor="start" x="279" y="-279.3" font-family="Times New Roman,serif" font-size="14.00">type_id :integer</text>
<text text-anchor="start" x="279" y="-264.3" font-family="Times New Roman,serif" font-size="14.00">name :varchar</text>
<text text-anchor="start" x="279" y="-249.3" font-family="Times New Roman,serif" font-size="14.00">usage? :boolean</text>
</g>
<!-- Subtype&#45;&gt;Sensor -->
<g id="edge3" class="edge"><title>Subtype&#45;&gt;Sensor</title>
<path fill="none" stroke="#db4ae4" d="M288.189,-234.341C283.385,-227.313 278.482,-220.14 273.756,-213.227"/>
<ellipse fill="none" stroke="#db4ae4" cx="290.62" cy="-237.898" rx="4.00002" ry="4.00002"/>
<polygon fill="#db4ae4" stroke="#db4ae4" points="273.529,-212.894 271.601,-202.099 270.707,-208.766 267.886,-204.639 267.886,-204.639 267.886,-204.639 270.707,-208.766 264.171,-207.178 273.529,-212.894 273.529,-212.894"/>
</g>
<!-- Type -->
<g id="node6" class="node"><title>Type</title>
<path fill="none" stroke="black" d="M239,-377.5C239,-377.5 328,-377.5 328,-377.5 334,-377.5 340,-383.5 340,-389.5 340,-389.5 340,-426.5 340,-426.5 340,-432.5 334,-438.5 328,-438.5 328,-438.5 239,-438.5 239,-438.5 233,-438.5 227,-432.5 227,-426.5 227,-426.5 227,-389.5 227,-389.5 227,-383.5 233,-377.5 239,-377.5"/>
<text text-anchor="middle" x="283.5" y="-423.3" font-family="Times New Roman,serif" font-size="14.00">Type</text>
<polyline fill="none" stroke="black" points="227,-415.5 340,-415.5 "/>
<text text-anchor="start" x="235" y="-400.3" font-family="Times New Roman,serif" font-size="14.00">id :INTEGER</text>
<text text-anchor="start" x="235" y="-385.3" font-family="Times New Roman,serif" font-size="14.00">resource :varchar</text>
</g>
<!-- Type&#45;&gt;Sensor -->
<g id="edge5" class="edge"><title>Type&#45;&gt;Sensor</title>
<path fill="none" stroke="#d8ed26" d="M271.068,-367.537C267.914,-356.45 264.777,-344.327 262.5,-333 254.574,-293.571 249.359,-248.183 246.248,-214.923"/>
<polygon fill="#d8ed26" stroke="#d8ed26" points="271.139,-367.777 269.628,-378.638 272.543,-372.576 273.947,-377.375 273.947,-377.375 273.947,-377.375 272.543,-372.576 278.266,-376.111 271.139,-367.777 271.139,-367.777"/>
<polygon fill="#d8ed26" stroke="#d8ed26" points="246.213,-214.533 249.793,-204.168 245.762,-209.553 245.311,-204.573 245.311,-204.573 245.311,-204.573 245.762,-209.553 240.83,-204.979 246.213,-214.533 246.213,-214.533"/>
</g>
<!-- Type&#45;&gt;Subtype -->
<g id="edge4" class="edge"><title>Type&#45;&gt;Subtype</title>
<path fill="none" stroke="#e10fcc" d="M296.13,-369.425C299.045,-360.753 302.203,-351.357 305.303,-342.136"/>
<ellipse fill="none" stroke="#e10fcc" cx="294.765" cy="-373.487" rx="4.00001" ry="4.00001"/>
<polygon fill="#e10fcc" stroke="#e10fcc" points="305.313,-342.105 312.765,-334.06 306.907,-337.365 308.5,-332.626 308.5,-332.626 308.5,-332.626 306.907,-337.365 304.234,-331.192 305.313,-342.105 305.313,-342.105"/>
</g>
</g>
</svg>
