<?xml version="1.0" encoding="UTF-8" standalone="no"?>
<!DOCTYPE svg PUBLIC "-//W3C//DTD SVG 1.1//EN"
 "http://www.w3.org/Graphics/SVG/1.1/DTD/svg11.dtd">
<!-- Generated by graphviz version 2.38.0 (20140413.2041)
 -->
<!-- Title: models_diagram Pages: 1 -->
<svg width="339pt" height="302pt"
 viewBox="0.00 0.00 339.45 302.00" xmlns="http://www.w3.org/2000/svg" xmlns:xlink="http://www.w3.org/1999/xlink">
<g id="graph0" class="graph" transform="scale(1 1) rotate(0) translate(4 298)">
<title>models_diagram</title>
<polygon fill="none" stroke="none" points="-4,4 -4,-298 335.446,-298 335.446,4 -4,4"/>
<!-- _diagram_info -->
<g id="node1" class="node"><title>_diagram_info</title>
<text text-anchor="start" x="8" y="-279.6" font-family="Times New Roman,serif" font-size="13.00">Models diagram</text>
<text text-anchor="start" x="8" y="-265.6" font-family="Times New Roman,serif" font-size="13.00">Date: Apr 12 2016 &#45; 17:12</text>
<text text-anchor="start" x="8" y="-251.6" font-family="Times New Roman,serif" font-size="13.00">Migration version: 20160223172532</text>
<text text-anchor="start" x="8" y="-237.6" font-family="Times New Roman,serif" font-size="13.00">Generated by RailRoady 1.4.2</text>
<text text-anchor="start" x="8" y="-223.6" font-family="Times New Roman,serif" font-size="13.00">http://railroady.prestonlee.com</text>
</g>
<!-- Measurement -->
<g id="node2" class="node"><title>Measurement</title>
<ellipse fill="none" stroke="black" cx="221.5" cy="-18" rx="59.2899" ry="18"/>
<text text-anchor="middle" x="221.5" y="-14.3" font-family="Times New Roman,serif" font-size="14.00">Measurement</text>
</g>
<!-- Program -->
<g id="node3" class="node"><title>Program</title>
<ellipse fill="none" stroke="black" cx="151.5" cy="-162" rx="42.4939" ry="18"/>
<text text-anchor="middle" x="151.5" y="-158.3" font-family="Times New Roman,serif" font-size="14.00">Program</text>
</g>
<!-- Sensor -->
<g id="node4" class="node"><title>Sensor</title>
<ellipse fill="none" stroke="black" cx="221.5" cy="-90" rx="36.2938" ry="18"/>
<text text-anchor="middle" x="221.5" y="-86.3" font-family="Times New Roman,serif" font-size="14.00">Sensor</text>
</g>
<!-- Program&#45;&gt;Sensor -->
<g id="edge1" class="edge"><title>Program&#45;&gt;Sensor</title>
<path fill="none" stroke="#0342a5" d="M173.095,-139.405C181.288,-131.212 190.636,-121.864 198.917,-113.583"/>
<ellipse fill="none" stroke="#0342a5" cx="170.213" cy="-142.287" rx="4.00002" ry="4.00002"/>
<polygon fill="#0342a5" stroke="#0342a5" points="199.089,-113.411 209.342,-109.522 202.624,-109.876 206.16,-106.34 206.16,-106.34 206.16,-106.34 202.624,-109.876 202.978,-103.158 199.089,-113.411 199.089,-113.411"/>
</g>
<!-- Sensor&#45;&gt;Measurement -->
<g id="edge2" class="edge"><title>Sensor&#45;&gt;Measurement</title>
<path fill="none" stroke="#b07224" d="M221.5,-63.6398C221.5,-58.0629 221.5,-52.1319 221.5,-46.4761"/>
<ellipse fill="none" stroke="#b07224" cx="221.5" cy="-67.6966" rx="4" ry="4"/>
<polygon fill="#b07224" stroke="#b07224" points="221.5,-46.1043 226,-36.1043 221.5,-41.1043 221.5,-36.1043 221.5,-36.1043 221.5,-36.1043 221.5,-41.1043 217,-36.1044 221.5,-46.1043 221.5,-46.1043"/>
</g>
<!-- Subtype -->
<g id="node5" class="node"><title>Subtype</title>
<ellipse fill="none" stroke="black" cx="290.5" cy="-162" rx="40.8928" ry="18"/>
<text text-anchor="middle" x="290.5" y="-158.3" font-family="Times New Roman,serif" font-size="14.00">Subtype</text>
</g>
<!-- Subtype&#45;&gt;Sensor -->
<g id="edge3" class="edge"><title>Subtype&#45;&gt;Sensor</title>
<path fill="none" stroke="#f39473" d="M269.006,-139.194C261.258,-131.334 252.485,-122.434 244.606,-114.441"/>
<ellipse fill="none" stroke="#f39473" cx="272.035" cy="-142.267" rx="4.00002" ry="4.00002"/>
<polygon fill="#f39473" stroke="#f39473" points="244.115,-113.943 240.3,-103.662 240.605,-110.382 237.095,-106.821 237.095,-106.821 237.095,-106.821 240.605,-110.382 233.89,-109.98 244.115,-113.943 244.115,-113.943"/>
</g>
<!-- Type -->
<g id="node6" class="node"><title>Type</title>
<ellipse fill="none" stroke="black" cx="256.5" cy="-255" rx="29.795" ry="18"/>
<text text-anchor="middle" x="256.5" y="-251.3" font-family="Times New Roman,serif" font-size="14.00">Type</text>
</g>
<!-- Type&#45;&gt;Sensor -->
<g id="edge5" class="edge"><title>Type&#45;&gt;Sensor</title>
<path fill="none" stroke="#ee4b16" d="M250.641,-226.984C247.606,-212.968 243.844,-195.566 240.5,-180 236.048,-159.277 231.044,-135.832 227.289,-118.209"/>
<polygon fill="#ee4b16" stroke="#ee4b16" points="250.684,-227.182 248.404,-237.908 251.743,-232.069 252.801,-236.956 252.801,-236.956 252.801,-236.956 251.743,-232.069 257.199,-236.003 250.684,-227.182 250.684,-227.182"/>
<polygon fill="#ee4b16" stroke="#ee4b16" points="227.212,-117.845 229.531,-107.127 226.171,-112.955 225.129,-108.065 225.129,-108.065 225.129,-108.065 226.171,-112.955 220.728,-109.002 227.212,-117.845 227.212,-117.845"/>
</g>
<!-- Type&#45;&gt;Subtype -->
<g id="edge4" class="edge"><title>Type&#45;&gt;Subtype</title>
<path fill="none" stroke="#82eee6" d="M265.638,-229.543C270.268,-217.152 275.895,-202.09 280.624,-189.432"/>
<ellipse fill="none" stroke="#82eee6" cx="264.136" cy="-233.562" rx="4.00001" ry="4.00001"/>
<polygon fill="#82eee6" stroke="#82eee6" points="280.688,-189.261 288.404,-181.468 282.438,-184.577 284.188,-179.893 284.188,-179.893 284.188,-179.893 282.438,-184.577 279.973,-178.318 280.688,-189.261 280.688,-189.261"/>
</g>
</g>
</svg>
